<?xml version="1.0" standalone="no"?>
<!DOCTYPE svg PUBLIC "-//W3C//DTD SVG 20010904//EN"
 "http://www.w3.org/TR/2001/REC-SVG-20010904/DTD/svg10.dtd">
<svg version="1.0" xmlns="http://www.w3.org/2000/svg"
 width="1000.000000pt" height="1000.000000pt" viewBox="0 0 1000.000000 1000.000000"
 preserveAspectRatio="xMidYMid meet">
<metadata>
Created by potrace 1.15, written by Peter Selinger 2001-2017
</metadata>
<g transform="translate(0.000000,1000.000000) scale(0.100000,-0.100000)"
fill="#000000" stroke="none">
<path d="M4295 7943 c-22 -15 -109 -68 -194 -119 l-153 -93 -39 19 c-21 11
-42 20 -48 20 -5 0 -14 -30 -20 -66 -7 -36 -59 -192 -117 -347 l-105 -280 -31
-216 -31 -216 106 -175 106 -175 281 -150 c273 -146 285 -153 421 -270 l140
-120 -67 -3 -67 -3 -56 53 c-131 125 -111 114 -345 184 -120 36 -220 63 -223
60 -3 -3 2 -35 11 -71 9 -35 23 -123 31 -195 8 -72 17 -136 21 -143 4 -6 45
-62 90 -123 l82 -112 146 -70 c80 -39 146 -72 146 -75 0 -2 -9 -53 -20 -113
-11 -60 -36 -299 -54 -531 l-34 -422 25 -186 25 -186 -44 -55 c-23 -30 -49
-63 -56 -73 -7 -10 -20 -85 -29 -167 l-16 -149 57 -270 57 -270 149 -235 c82
-129 155 -243 162 -253 8 -10 57 -30 124 -48 l110 -30 139 -120 c76 -65 140
-119 141 -119 6 0 508 372 526 389 9 9 87 232 174 496 l157 480 -18 105 c-9
58 -21 114 -25 126 -5 11 -37 45 -72 74 -34 30 -123 118 -196 195 l-133 140
-59 140 -59 140 -1 142 0 142 53 10 c28 6 81 15 117 21 106 17 106 17 126 62
10 24 49 75 85 115 68 73 80 99 78 177 0 41 -2 43 -175 190 l-174 149 0 53 0
52 48 10 c26 6 68 13 93 17 25 4 50 10 55 13 6 4 56 73 111 153 l101 147 26
165 c14 91 26 170 26 176 0 7 -29 11 -80 11 -76 0 -85 -3 -230 -67 l-151 -67
-66 -83 c-37 -46 -70 -83 -75 -83 -17 0 -7 38 25 90 30 50 41 58 182 134 83
45 233 115 335 156 l185 74 135 124 c133 122 136 126 169 209 l34 85 -22 131
-22 131 -53 66 -54 66 -27 145 c-27 142 -28 145 -93 247 -36 57 -68 99 -73 95
-4 -4 -1 -53 6 -108 23 -158 24 -154 -35 -105 -28 24 -54 40 -57 36 -4 -3 -1
-41 5 -83 11 -66 20 -89 77 -179 l65 -103 17 -134 c16 -130 16 -137 -2 -196
-10 -34 -21 -64 -24 -66 -4 -2 -57 181 -118 406 l-113 408 -71 126 c-40 69
-76 128 -80 131 -14 9 -10 -37 15 -178 14 -73 35 -204 47 -292 17 -126 32
-190 73 -315 l51 -156 -3 -112 -4 -113 -64 -67 -64 -68 -35 39 c-33 37 -35 44
-36 113 -1 40 -3 78 -4 83 -1 6 -3 35 -4 66 -1 59 -2 60 -51 40 -12 -5 -42 53
-139 269 -68 151 -128 275 -132 275 -5 0 -9 -2 -9 -5 0 -22 139 -594 165 -680
25 -82 34 -136 38 -213 l5 -102 -71 -40 c-40 -22 -100 -55 -134 -72 l-63 -33
-35 35 -34 35 -20 170 c-16 145 -23 180 -50 237 -17 36 -35 69 -40 72 -16 11
-24 -182 -18 -482 l5 -293 -37 -18 c-28 -15 -70 -20 -186 -26 l-150 -7 -73 81
-73 81 -15 347 c-15 358 -20 413 -32 413 -4 0 -21 -26 -38 -57 -31 -57 -32
-60 -38 -248 l-7 -190 -47 -47 c-42 -44 -50 -48 -93 -48 -42 0 -71 14 -276
131 l-228 132 -61 81 -62 81 11 63 10 63 136 125 135 125 428 217 c415 210
430 219 510 293 46 42 80 80 77 83 -4 4 -237 -79 -519 -184 -281 -105 -513
-190 -516 -188 -2 2 19 84 46 181 28 97 50 182 50 187 0 30 -31 -11 -161 -214
-79 -124 -145 -221 -147 -216 -2 5 11 64 29 132 32 119 34 125 89 183 156 167
430 475 430 484 0 16 -10 13 -55 -16z m-91 -125 c-119 -134 -317 -348 -320
-345 -2 2 6 34 19 71 l23 67 144 115 c79 62 146 114 149 114 2 0 -4 -10 -15
-22z m551 -427 c-13 -11 -605 -311 -605 -306 0 3 320 226 359 250 15 9 216 63
241 64 8 1 10 -2 5 -8z m1221 -218 c30 -109 54 -202 54 -206 0 -9 -109 74
-136 104 -15 17 -16 28 -5 126 16 146 22 185 28 180 2 -3 29 -95 59 -204z
m-2182 55 c-19 -73 -47 -169 -61 -213 l-26 -80 -19 40 c-46 102 -46 106 9 192
28 43 67 104 87 136 20 31 38 57 41 57 2 0 -12 -60 -31 -132z m636 78 c-25
-23 -404 -279 -415 -280 -19 -2 -145 28 -145 34 0 3 28 33 63 67 71 71 139
101 357 158 147 39 161 41 140 21z m1825 -132 l17 -101 -27 -122 c-16 -67 -32
-118 -36 -114 -3 5 -12 52 -19 106 -10 88 -9 110 11 234 14 84 25 129 29 117
4 -10 15 -64 25 -120z m-2380 -139 c44 -10 87 -21 95 -25 9 -5 -29 -22 -110
-48 -69 -21 -126 -38 -128 -37 -3 3 27 115 35 128 3 5 10 6 17 4 6 -3 47 -12
91 -22z m-176 -134 c28 -68 51 -125 51 -127 0 -6 -151 -94 -161 -94 -6 0 -9
10 -6 23 3 12 16 93 28 180 12 86 26 154 30 150 4 -5 30 -64 58 -132z m2272
79 l73 -60 38 -133 c21 -72 36 -138 35 -146 -1 -8 -34 21 -73 65 -66 73 -74
88 -112 197 -40 112 -47 137 -38 137 2 0 36 -27 77 -60z m-2098 -100 c-54 -49
-101 -90 -104 -90 -4 0 -9 8 -12 18 -3 9 -12 34 -21 54 l-16 37 108 35 c59 18
115 34 125 35 10 1 -24 -37 -80 -89z m2526 -42 c7 -46 15 -95 18 -109 5 -26 1
-28 -116 -74 -67 -26 -124 -45 -127 -42 -4 3 4 36 16 74 20 60 32 78 103 151
45 45 84 82 88 82 3 0 11 -37 18 -82z m-2668 -164 c-9 -48 -7 -83 9 -184 11
-68 18 -126 16 -128 -4 -4 -164 260 -168 278 -3 10 143 102 150 96 2 -2 -1
-30 -7 -62z m2328 -14 l72 -79 -47 -70 c-26 -39 -50 -68 -54 -66 -5 3 -20 25
-34 49 -23 40 -26 55 -26 145 0 56 4 101 9 101 4 0 40 -36 80 -80z m-406 -88
c31 -42 78 -101 104 -130 l46 -53 -23 -92 c-12 -51 -26 -95 -29 -99 -4 -4 -32
61 -64 145 -65 171 -109 307 -99 307 4 -1 33 -35 65 -78z m596 -23 c50 -11 91
-24 91 -27 0 -6 -100 -100 -192 -181 l-37 -33 -31 48 c-36 57 -37 66 -7 107
64 88 78 107 82 107 2 0 44 -9 94 -21z m-230 -129 c33 -55 55 -100 49 -100
-18 0 -228 64 -228 70 0 6 110 130 115 130 2 0 31 -45 64 -100z m-769 -102
l11 -118 -38 -116 -38 -117 -7 54 c-3 30 -7 106 -7 169 -1 99 3 128 26 204 32
105 35 100 53 -76z m-1160 -8 c118 -67 216 -123 217 -124 5 -4 24 -147 21
-156 -3 -9 -499 249 -523 272 -10 9 52 141 64 134 3 -2 103 -58 221 -126z
m1868 19 c61 -18 112 -37 112 -40 0 -4 -67 -34 -150 -67 -89 -36 -150 -55
-150 -48 0 10 28 118 46 179 3 10 11 17 17 15 7 -3 63 -20 125 -39z m-1346
-140 c3 -79 5 -145 5 -146 -1 0 -24 -4 -51 -8 l-49 -8 7 129 c7 121 9 131 34
157 14 15 31 26 37 24 6 -2 13 -62 17 -148z m1067 20 c29 -33 52 -62 50 -63
-12 -11 -288 -156 -296 -156 -15 0 -67 130 -57 140 9 9 234 137 244 139 3 1
30 -26 59 -60z m-1223 -100 c19 -39 33 -74 29 -77 -3 -3 -34 -8 -69 -10 l-63
-4 -7 58 c-4 32 -9 68 -12 81 -6 21 -3 23 40 23 l46 0 36 -71z m861 39 c41
-44 91 -157 74 -167 -19 -12 -181 -45 -187 -38 -7 6 68 237 76 237 3 0 20 -15
37 -32z m623 -53 c0 -8 -194 -245 -197 -241 -2 2 12 45 31 97 60 165 48 149
111 149 30 0 55 -2 55 -5z m-186 -142 c-25 -70 -49 -130 -51 -132 -6 -7 -154
142 -150 152 3 9 239 116 245 111 2 -1 -18 -60 -44 -131z m182 -15 c-9 -57
-19 -115 -22 -130 l-5 -27 -87 6 c-48 3 -89 7 -90 9 -2 1 45 63 105 136 59 74
109 128 111 121 2 -7 -4 -59 -12 -115z m-1241 5 l69 -76 -39 -34 c-22 -19 -52
-43 -66 -53 l-25 -19 -131 112 c-73 62 -132 115 -132 118 -1 6 145 23 229 27
19 1 41 -16 95 -75z m-582 12 c87 -27 157 -54 157 -60 0 -20 -55 -149 -66
-152 -5 -1 -72 59 -149 133 -77 74 -131 133 -120 131 11 -2 91 -26 178 -52z
m1500 -153 c-37 -1 -99 1 -136 5 l-69 8 58 73 58 73 78 -78 79 -78 -68 -3z
m-339 58 c46 -23 87 -48 90 -57 6 -15 -29 -139 -44 -156 -3 -4 -55 42 -114
104 l-108 111 28 18 c41 26 53 25 148 -20z m-1169 -60 c41 -41 75 -77 75 -81
0 -5 -247 -59 -251 -55 -2 3 -24 217 -22 219 1 2 29 0 63 -3 59 -6 62 -7 135
-80z m285 6 c64 -66 64 -66 45 -86 -56 -54 -300 -258 -303 -251 -1 5 34 101
79 214 69 175 84 205 98 197 9 -5 45 -38 81 -74z m660 25 c0 -5 -39 -111 -87
-236 -69 -181 -89 -224 -98 -213 -21 22 -207 349 -202 355 4 3 355 98 380 102
4 0 7 -3 7 -8z m148 -95 c56 -58 102 -108 102 -113 0 -9 -390 -256 -396 -250
-3 3 137 378 166 445 5 12 13 22 18 22 5 0 54 -47 110 -104z m507 39 c72 -3
144 -8 162 -11 l32 -5 -90 -129 c-50 -72 -94 -130 -98 -130 -9 0 -281 274
-281 284 0 5 33 6 73 2 39 -3 131 -8 202 -11z m-265 -158 c23 -71 40 -130 38
-132 -2 -3 -35 27 -73 65 l-69 70 23 71 c13 39 26 67 31 63 4 -5 27 -67 50
-137z m248 -132 c-11 -11 -162 -35 -170 -27 -10 10 -98 271 -98 292 0 8 62
-47 137 -122 75 -76 134 -140 131 -143z m-943 58 c61 -103 111 -193 113 -200
4 -14 -144 -412 -157 -426 -9 -9 -212 793 -205 805 3 4 35 8 73 8 l67 0 109
-187z m-324 -52 c-17 -104 -31 -192 -31 -195 0 -16 -40 -1 -151 54 -66 34
-119 65 -117 69 7 18 323 281 326 272 2 -6 -10 -96 -27 -200z m-235 182 c-41
-112 -92 -232 -98 -230 -9 3 -148 188 -148 197 0 7 188 47 229 49 18 1 22 -3
17 -16z m389 -372 c47 -189 84 -348 83 -353 -2 -5 -60 63 -129 151 l-126 161
22 138 c45 277 47 288 56 267 5 -11 47 -175 94 -364z m838 211 l88 -89 -3 -48
-3 -48 -379 -213 c-209 -118 -383 -214 -389 -214 -5 0 -6 8 -2 18 4 9 41 105
82 212 41 107 77 198 82 203 14 14 416 265 426 266 6 1 50 -39 98 -87z m257
-344 l164 -143 -76 -23 -77 -23 -208 86 c-114 47 -211 89 -215 93 -6 6 219
146 242 151 3 0 79 -63 170 -141z m-1012 -274 c-5 -5 -279 95 -292 106 -7 7
20 204 31 223 2 4 63 -67 135 -159 71 -91 128 -167 126 -170z m778 165 c121
-50 224 -96 230 -102 13 -15 56 -158 49 -165 -6 -6 -957 78 -964 84 -7 6 -10
4 234 142 127 72 231 131 231 131 1 1 100 -40 220 -90z m-325 -357 c130 -48
237 -91 238 -96 1 -5 -233 -95 -521 -201 l-523 -192 -3 29 c-3 30 46 703 53
724 2 8 97 -22 262 -83 142 -52 364 -134 494 -181z m-83 128 l227 -21 188 -71
c111 -42 183 -74 175 -78 -7 -4 -61 -15 -119 -24 l-107 -17 -303 111 c-167 62
-306 114 -308 116 -6 6 1 6 247 -16z m537 -50 c72 -6 136 -13 143 -15 17 -6
-22 -85 -42 -85 -16 0 -296 106 -305 116 -3 3 12 4 34 0 22 -3 99 -10 170 -16z
m-175 -325 l0 -125 -141 -517 c-78 -285 -146 -522 -150 -527 -5 -6 -62 16
-136 51 -70 33 -261 122 -423 198 -162 76 -297 140 -299 141 -2 2 18 31 45 64
39 48 159 144 564 450 283 213 521 389 528 389 9 1 12 -30 12 -124z m-110 81
c-8 -7 -215 -163 -460 -346 -245 -183 -451 -338 -458 -343 -7 -5 -15 -7 -18
-4 -13 13 -50 338 -40 346 6 4 218 83 471 176 253 92 467 171 475 176 8 5 22
9 30 9 13 0 13 -2 0 -14z m272 -756 c21 -135 52 -321 68 -415 15 -93 25 -173
22 -176 -6 -6 -512 68 -520 76 -4 3 267 995 275 1009 3 5 30 -49 60 -120 52
-123 57 -141 95 -374z m117 79 c61 -65 111 -119 111 -122 0 -8 -160 -147 -169
-147 -4 0 -20 75 -35 168 -16 92 -30 180 -33 196 -4 18 -2 27 4 25 6 -2 61
-56 122 -120z m184 -180 c26 -23 47 -47 45 -53 -5 -20 -223 -416 -229 -416 -3
0 -17 77 -33 172 -22 140 -25 174 -14 184 31 30 173 153 178 154 3 0 27 -19
53 -41z m-1165 -234 c188 -88 338 -161 333 -163 -10 -3 -814 118 -820 124 -4
3 15 176 25 226 l5 26 58 -26 c32 -15 211 -99 399 -187z m1247 59 c10 -53 13
-100 9 -104 -23 -23 -238 -189 -241 -186 -3 2 42 86 173 324 19 34 36 62 38
62 2 0 11 -43 21 -96z m-1291 -189 c230 -35 420 -65 421 -67 2 -2 -166 -94
-373 -205 -355 -189 -377 -200 -384 -180 -7 19 -108 501 -108 513 0 7 19 5
444 -61z m1293 31 c-3 -7 -70 -210 -148 -450 -79 -240 -147 -436 -151 -436 -5
0 -99 77 -209 172 -171 147 -198 174 -186 186 29 28 682 541 691 542 4 0 6 -6
3 -14z m-560 -143 c139 -21 253 -41 253 -45 0 -8 -3 -11 -568 -456 -239 -188
-437 -342 -440 -342 -8 0 -285 436 -290 456 -2 7 75 54 185 112 103 56 276
148 383 205 107 58 202 105 210 106 8 1 129 -15 267 -36z m44 -590 c107 -91
194 -172 194 -179 0 -13 -474 -369 -481 -361 -7 6 79 707 87 707 4 0 94 -75
200 -167z m-231 150 c0 -5 -7 -77 -17 -161 l-17 -154 -159 -79 -158 -80 -91
25 c-49 13 -93 27 -96 30 -3 4 3 13 14 21 10 8 129 102 264 209 135 107 248
195 253 195 4 1 7 -2 7 -6z m-60 -519 c-11 -92 -23 -170 -25 -172 -4 -4 -166
130 -229 189 -19 18 -16 20 125 87 79 38 145 68 147 67 2 -2 -6 -78 -18 -171z"/>
</g>
</svg>
